<?xml version="1.0" encoding="UTF-8"?>
<svg id="Calque_1" data-name="Calque 1" xmlns="http://www.w3.org/2000/svg" xmlns:xlink="http://www.w3.org/1999/xlink" viewBox="0 0 261.1 160">
  <defs>
    <style>
      .cls-1 {
        fill: url(#linear-gradient-2);
      }

      .cls-2 {
        fill: url(#linear-gradient);
      }
    </style>
    <linearGradient id="linear-gradient" x1="153.94" y1="-23.12" x2="193.57" y2="44.36" gradientUnits="userSpaceOnUse">
      <stop offset="0" stop-color="#33bcf7"/>
      <stop offset="1" stop-color="#0069e2"/>
    </linearGradient>
    <linearGradient id="linear-gradient-2" x1="241.21" y1="121.91" x2="160.22" y2="40.92" xlink:href="#linear-gradient"/>
  </defs>
  <g>
    <path class="cls-2" d="M206.41,39.1l.97-.7,4.72,1.89c2.09-2.32,4.6-4.2,6.83-6.13l-7.76-6.41,2-1.44,10.43,4.27c2.56-1.68,4.71-2.93,6.4-2.99-1.92-1.84-4.54-3.01-7.55-3.01,0,0-65.83,0-65.84,0-5.22,0-9.96,3.61-11.51,8.57-.87,2.77-.71,5.99.65,8.58,2.71,5.17,11.28,6.3,16.39,7.04,7.84,1.15,15.32.31,23.07-.93,7.98-1.27,15.99-2.53,23.74-4.86.24-.07,1.71-.7,1.87-.58l-4.42-3.31Z"/>
    <path class="cls-1" d="M231.03,28.7c-.48,1.6-2.29,3.26-4.67,5.18l.79,11.78-2,1.44-3.79-9.78c-2.56,1.54-5.17,3.37-8.08,4.65l.31,5.02-.97.7-1.75-5.22c-30.33,29.8-40.63,73.98-43.13,88.89,4.73,5.87,14.23,5.35,18.1-1.58l46.2-88.87c2.34-4.19,1.61-8.93-1.02-12.22Z"/>
  </g>
  <g>
    <path d="M27.65,58.6h6.41l4.34,17.88,5.13-17.88h5.92l5.32,17.99,4.19-17.99h6.26l-7.13,27.76h-6.19l-5.43-17.84-5.43,17.84h-6.19l-7.2-27.76Z"/>
    <path d="M65.36,76.37c0-6.15,4.56-10.37,9.96-10.37,2.23,0,4.41.75,5.77,2.19l.04-1.81h5.28v19.99h-5.28l-.04-1.81c-1.36,1.43-3.55,2.19-5.77,2.19-5.39,0-9.96-4.22-9.96-10.37ZM76.11,81.31c2.72,0,4.71-1.92,4.71-4.94s-2-4.94-4.71-4.94-4.79,1.92-4.79,4.94,2.04,4.94,4.79,4.94Z"/>
    <path d="M99.07,65.88c5.43,0,8.75,3.32,8.75,8.67v11.81h-5.96v-11.58c0-2.15-1.02-3.36-2.79-3.36s-2.79,1.21-2.79,3.36v11.58h-5.96v-11.81c0-5.36,3.32-8.67,8.75-8.67Z"/>
    <path d="M110.87,76.37c0-6.15,4.56-10.37,9.96-10.37,1.96,0,3.85.57,5.24,1.7-.08-1.55-.11-3.13-.11-4.79v-5.69h5.96v29.16h-5.28l-.04-1.81c-1.36,1.43-3.55,2.19-5.77,2.19-5.39,0-9.96-4.22-9.96-10.37ZM121.62,81.31c2.72,0,4.71-1.92,4.71-4.94s-2-4.94-4.71-4.94-4.79,1.92-4.79,4.94,2.04,4.94,4.79,4.94Z"/>
    <path d="M135.19,76.44c0-6.3,4.53-10.56,10.33-10.56,5.47,0,10.49,3.73,9.66,12.11h-14.37c.57,2.38,2.49,3.81,5.13,3.81,2.11,0,3.92-.9,5.39-2.75l3.85,3.21c-2.23,2.94-5.39,4.6-9.35,4.6-6.37,0-10.64-4.3-10.64-10.41ZM149.68,73.88c-.45-2.04-1.96-3.17-4.19-3.17s-3.96,1.24-4.6,3.17h8.79Z"/>
    <path d="M165.66,66.37h2.56v5.36h-2c-1.21,0-1.74.53-1.74,1.74v12.9h-5.96v-12.75c0-5.02,2.68-7.24,7.13-7.24Z"/>
  </g>
</svg>